{
	"patcher" : 	{
		"fileversion" : 1,
		"rect" : [ 284.0, 77.0, 858.0, 651.0 ],
		"bglocked" : 0,
		"defrect" : [ 284.0, 77.0, 858.0, 651.0 ],
		"openrect" : [ 0.0, 0.0, 0.0, 0.0 ],
		"openinpresentation" : 0,
		"default_fontsize" : 12.0,
		"default_fontface" : 0,
		"default_fontname" : "Arial",
		"gridonopen" : 0,
		"gridsize" : [ 15.0, 15.0 ],
		"gridsnaponopen" : 0,
		"toolbarvisible" : 1,
		"boxanimatetime" : 200,
		"imprint" : 0,
		"enablehscroll" : 1,
		"enablevscroll" : 1,
		"devicewidth" : 0.0,
		"boxes" : [ 			{
				"box" : 				{
					"maxclass" : "newobj",
					"text" : "prepend move",
					"numinlets" : 1,
					"fontsize" : 12.0,
					"numoutlets" : 1,
					"outlettype" : [ "" ],
					"patching_rect" : [ 113.0, 267.0, 87.0, 20.0 ],
					"id" : "obj-13",
					"fontname" : "Arial"
				}

			}
, 			{
				"box" : 				{
					"maxclass" : "newobj",
					"text" : "js space",
					"numinlets" : 1,
					"fontsize" : 12.0,
					"numoutlets" : 1,
					"outlettype" : [ "" ],
					"patching_rect" : [ 113.0, 325.0, 55.0, 20.0 ],
					"id" : "obj-12",
					"fontname" : "Arial"
				}

			}
, 			{
				"box" : 				{
					"maxclass" : "newobj",
					"text" : "print",
					"numinlets" : 1,
					"fontsize" : 12.0,
					"numoutlets" : 0,
					"patching_rect" : [ 113.0, 412.0, 34.0, 20.0 ],
					"id" : "obj-9",
					"fontname" : "Arial"
				}

			}
, 			{
				"box" : 				{
					"maxclass" : "newobj",
					"text" : "pack 0. 0. 0.",
					"numinlets" : 3,
					"fontsize" : 12.0,
					"numoutlets" : 1,
					"outlettype" : [ "" ],
					"patching_rect" : [ 113.0, 237.0, 76.0, 20.0 ],
					"id" : "obj-8",
					"fontname" : "Arial"
				}

			}
, 			{
				"box" : 				{
					"maxclass" : "flonum",
					"numinlets" : 1,
					"fontsize" : 12.0,
					"numoutlets" : 2,
					"outlettype" : [ "float", "bang" ],
					"patching_rect" : [ 413.0, 155.0, 50.0, 20.0 ],
					"id" : "obj-6",
					"fontname" : "Arial"
				}

			}
, 			{
				"box" : 				{
					"maxclass" : "flonum",
					"numinlets" : 1,
					"fontsize" : 12.0,
					"numoutlets" : 2,
					"outlettype" : [ "float", "bang" ],
					"patching_rect" : [ 353.0, 155.0, 50.0, 20.0 ],
					"id" : "obj-7",
					"fontname" : "Arial"
				}

			}
, 			{
				"box" : 				{
					"maxclass" : "flonum",
					"numinlets" : 1,
					"fontsize" : 12.0,
					"numoutlets" : 2,
					"outlettype" : [ "float", "bang" ],
					"patching_rect" : [ 293.0, 155.0, 50.0, 20.0 ],
					"id" : "obj-4",
					"fontname" : "Arial"
				}

			}
, 			{
				"box" : 				{
					"maxclass" : "flonum",
					"numinlets" : 1,
					"fontsize" : 12.0,
					"numoutlets" : 2,
					"outlettype" : [ "float", "bang" ],
					"patching_rect" : [ 233.0, 155.0, 50.0, 20.0 ],
					"id" : "obj-5",
					"fontname" : "Arial"
				}

			}
, 			{
				"box" : 				{
					"maxclass" : "flonum",
					"numinlets" : 1,
					"fontsize" : 12.0,
					"numoutlets" : 2,
					"outlettype" : [ "float", "bang" ],
					"patching_rect" : [ 173.0, 155.0, 50.0, 20.0 ],
					"id" : "obj-3",
					"fontname" : "Arial"
				}

			}
, 			{
				"box" : 				{
					"maxclass" : "flonum",
					"numinlets" : 1,
					"fontsize" : 12.0,
					"numoutlets" : 2,
					"outlettype" : [ "float", "bang" ],
					"patching_rect" : [ 113.0, 155.0, 50.0, 20.0 ],
					"id" : "obj-2",
					"fontname" : "Arial"
				}

			}
, 			{
				"box" : 				{
					"maxclass" : "newobj",
					"text" : "spacenav",
					"numinlets" : 0,
					"fontsize" : 12.0,
					"numoutlets" : 8,
					"outlettype" : [ "", "", "", "", "", "", "float", "float" ],
					"patching_rect" : [ 113.0, 73.0, 113.5, 20.0 ],
					"id" : "obj-1",
					"fontname" : "Arial"
				}

			}
 ],
		"lines" : [ 			{
				"patchline" : 				{
					"source" : [ "obj-5", 0 ],
					"destination" : [ "obj-8", 2 ],
					"hidden" : 0,
					"midpoints" : [  ]
				}

			}
, 			{
				"patchline" : 				{
					"source" : [ "obj-3", 0 ],
					"destination" : [ "obj-8", 1 ],
					"hidden" : 0,
					"midpoints" : [  ]
				}

			}
, 			{
				"patchline" : 				{
					"source" : [ "obj-2", 0 ],
					"destination" : [ "obj-8", 0 ],
					"hidden" : 0,
					"midpoints" : [  ]
				}

			}
, 			{
				"patchline" : 				{
					"source" : [ "obj-1", 0 ],
					"destination" : [ "obj-2", 0 ],
					"hidden" : 0,
					"midpoints" : [  ]
				}

			}
, 			{
				"patchline" : 				{
					"source" : [ "obj-1", 1 ],
					"destination" : [ "obj-3", 0 ],
					"hidden" : 0,
					"midpoints" : [  ]
				}

			}
, 			{
				"patchline" : 				{
					"source" : [ "obj-1", 2 ],
					"destination" : [ "obj-5", 0 ],
					"hidden" : 0,
					"midpoints" : [  ]
				}

			}
, 			{
				"patchline" : 				{
					"source" : [ "obj-1", 3 ],
					"destination" : [ "obj-4", 0 ],
					"hidden" : 0,
					"midpoints" : [  ]
				}

			}
, 			{
				"patchline" : 				{
					"source" : [ "obj-1", 4 ],
					"destination" : [ "obj-7", 0 ],
					"hidden" : 0,
					"midpoints" : [  ]
				}

			}
, 			{
				"patchline" : 				{
					"source" : [ "obj-1", 5 ],
					"destination" : [ "obj-6", 0 ],
					"hidden" : 0,
					"midpoints" : [  ]
				}

			}
, 			{
				"patchline" : 				{
					"source" : [ "obj-8", 0 ],
					"destination" : [ "obj-13", 0 ],
					"hidden" : 0,
					"midpoints" : [  ]
				}

			}
, 			{
				"patchline" : 				{
					"source" : [ "obj-13", 0 ],
					"destination" : [ "obj-12", 0 ],
					"hidden" : 0,
					"midpoints" : [  ]
				}

			}
, 			{
				"patchline" : 				{
					"source" : [ "obj-12", 0 ],
					"destination" : [ "obj-9", 0 ],
					"hidden" : 0,
					"midpoints" : [  ]
				}

			}
 ]
	}

}
